HIERARCHY
ROOT Hips
{
	OFFSET 0.000000 0.000000 0.000000
	CHANNELS 6 Xposition Yposition Zposition Zrotation Yrotation Xrotation 
	JOINT LHipJoint
	{
		OFFSET 0.000000 0.000000 0.000000
		CHANNELS 3 Zrotation Yrotation Xrotation
		JOINT LeftUpLeg
		{
			OFFSET 1.363060 -1.794630 0.839290
			CHANNELS 3 Zrotation Yrotation Xrotation
			JOINT LeftLeg
			{
				OFFSET 2.448110 -6.726130 0.000000
				CHANNELS 3 Zrotation Yrotation Xrotation
				JOINT LeftFoot
				{
					OFFSET 2.562200 -7.039590 0.000000
					CHANNELS 3 Zrotation Yrotation Xrotation
					JOINT LeftToeBase
					{
						OFFSET 0.157640 -0.433110 2.322550
						CHANNELS 3 Zrotation Yrotation Xrotation
						End Site
						{
							OFFSET 0.000000 0.000000 0.000000
						}
					}
				}
			}
		}
	}
	JOINT RHipJoint
	{
		OFFSET 0.000000 0.000000 0.000000
		CHANNELS 3 Zrotation Yrotation Xrotation
		JOINT RightUpLeg
		{
			OFFSET -1.305520 -1.794630 0.839290
			CHANNELS 3 Zrotation Yrotation Xrotation
			JOINT RightLeg
			{
				OFFSET -2.542530 -6.985550 0.000000
				CHANNELS 3 Zrotation Yrotation Xrotation
				JOINT RightFoot
				{
					OFFSET -2.568260 -7.056230 0.000000
					CHANNELS 3 Zrotation Yrotation Xrotation
					JOINT RightToeBase
					{
						OFFSET -0.164730 -0.452590 2.363150
						CHANNELS 3 Zrotation Yrotation Xrotation
						End Site
						{
							OFFSET 0.000000 0.000000 0.000000
						}
					}
				}
			}
		}
	}
	JOINT LowerBack
	{
		OFFSET 0.000000 0.000000 0.000000
		CHANNELS 3 Zrotation Yrotation Xrotation
		JOINT Spine
		{
			OFFSET 0.028270 2.035590 -0.193380
			CHANNELS 3 Zrotation Yrotation Xrotation
			JOINT Spine1
			{
				OFFSET 0.056720 2.048850 -0.042750
				CHANNELS 3 Zrotation Yrotation Xrotation
				JOINT Neck
				{
					OFFSET 0.000000 0.000000 0.000000
					CHANNELS 3 Zrotation Yrotation Xrotation
					JOINT Neck1
					{
						OFFSET -0.054170 1.746240 0.172020
						CHANNELS 3 Zrotation Yrotation Xrotation
						JOINT Head
						{
							OFFSET 0.104070 1.761360 -0.123970
							CHANNELS 3 Zrotation Yrotation Xrotation
							End Site
							{
								OFFSET 0.000000 0.000000 0.000000
							}
						}
					}
				}
				JOINT LeftShoulder
				{
					OFFSET 0.000000 0.000000 0.000000
					CHANNELS 3 Zrotation Yrotation Xrotation
					JOINT LeftArm
					{
						OFFSET 3.362410 1.200890 -0.311210
						CHANNELS 3 Zrotation Yrotation Xrotation
						JOINT LeftForeArm
						{
							OFFSET 4.983000 -0.000000 -0.000000
							CHANNELS 3 Zrotation Yrotation Xrotation
							JOINT LeftHand
							{
								OFFSET 3.483560 -0.000000 -0.000000
								CHANNELS 3 Zrotation Yrotation Xrotation
								JOINT LeftFingerBase
								{
									OFFSET 0.000000 0.000000 0.000000
									CHANNELS 3 Zrotation Yrotation Xrotation
									JOINT LeftHandIndex1
									{
										OFFSET 0.715260 -0.000000 -0.000000
										CHANNELS 3 Zrotation Yrotation Xrotation
										End Site
										{
											OFFSET 0.000000 0.000000 0.000000
										}
									}
								}
								JOINT LThumb
								{
									OFFSET 0.000000 0.000000 0.000000
									CHANNELS 3 Zrotation Yrotation Xrotation
									End Site
									{
										OFFSET 0.000000 0.000000 0.000000
									}
								}
							}
						}
					}
				}
				JOINT RightShoulder
				{
					OFFSET 0.000000 0.000000 0.000000
					CHANNELS 3 Zrotation Yrotation Xrotation
					JOINT RightArm
					{
						OFFSET -3.136600 1.374050 -0.404650
						CHANNELS 3 Zrotation Yrotation Xrotation
						JOINT RightForeArm
						{
							OFFSET -5.241900 -0.000000 -0.000000
							CHANNELS 3 Zrotation Yrotation Xrotation
							JOINT RightHand
							{
								OFFSET -3.444170 -0.000000 -0.000000
								CHANNELS 3 Zrotation Yrotation Xrotation
								JOINT RightFingerBase
								{
									OFFSET 0.000000 0.000000 0.000000
									CHANNELS 3 Zrotation Yrotation Xrotation
									JOINT RightHandIndex1
									{
										OFFSET -0.622530 -0.000000 -0.000000
										CHANNELS 3 Zrotation Yrotation Xrotation
										End Site
										{
											OFFSET 0.000000 0.000000 0.000000
										}
									}
								}
								JOINT RThumb
								{
									OFFSET 0.000000 0.000000 0.000000
									CHANNELS 3 Zrotation Yrotation Xrotation
									End Site
									{
										OFFSET 0.000000 0.000000 0.000000
									}
								}
							}
						}
					}
				}
			}
		}
	}
}
MOTION
Frames: 10
Frame Time: 0.008333
-0.587279 17.033900 27.148200 174.889225 88.827772 -175.078599 -11.543509 22.107391 -13.373650 -27.509156 -13.412845 -26.028556 11.979942 2.693823 61.234361 29.361727 -9.811143 -0.438026 -10.548718 8.386604 -13.756603 -0.520119 -25.234529 -3.035496 15.841176 -3.753943 -12.240940 -11.779943 -8.434410 43.589595 -30.804409 10.685991 -11.340395 8.671562 -7.720777 -15.931032 2.404761 4.338957 25.880905 9.804924 6.135980 9.802334 -10.521249 -4.134628 -29.627609 -7.370253 0.874971 -14.678894 1.368106 1.764816 7.099143 -1.796959 3.519812 -9.752595 10.029720 30.214211 9.817796 -65.463418 -4.984924 55.990641 165.686841 -70.795993 -168.871758 12.183665 -16.389632 12.124610 -2.292922 11.059726 -0.000000 0.000000 0.000000 0.000000 0.000000 0.000000 0.000000 -14.868125 -39.009907 -2.072391 81.991512 4.698114 51.086799 177.410916 74.459819 -178.279684 -9.188904 31.402830 6.441569 -0.341559 -7.985131 0.000000 0.000000 0.000000 0.000000 0.000000 0.000000 0.000000 
-0.357453 17.108600 27.136950 174.976646 87.693337 -174.953223 -11.524770 22.071641 -13.293254 -28.115681 -13.140843 -25.570482 10.813696 2.591555 57.900124 28.658953 -9.750886 -0.754618 -10.403754 7.861520 -13.729603 -0.753967 -25.111654 -2.766101 15.565080 -4.414862 -11.343165 -11.282534 -8.544515 42.579327 -30.766431 11.133839 -9.303829 8.901794 -8.224182 -16.343172 2.387690 4.350318 25.374610 9.980574 6.126526 9.998850 -10.628181 -4.229976 -29.631988 -7.370450 0.684732 -14.796384 1.333855 1.626130 7.228144 -1.810256 3.490262 -9.668672 10.154194 30.386944 10.060884 -64.709718 -4.758468 56.816502 164.919428 -70.496005 -168.509928 12.304044 -16.557845 12.401187 -2.513179 11.046284 -0.000000 0.000000 0.000000 0.000000 0.000000 0.000000 0.000000 -15.087816 -39.162196 -1.924682 81.741538 4.476592 51.611224 177.300794 73.757158 -178.455538 -9.162288 31.392038 6.405090 -0.332500 -7.927667 0.000000 0.000000 0.000000 0.000000 0.000000 0.000000 0.000000 
-0.129665 17.181950 27.127950 175.042477 86.690979 -174.811481 -11.504071 21.978379 -13.184572 -28.572568 -12.783210 -25.127743 9.528496 2.474352 54.494829 28.003309 -9.943850 -0.914746 -10.337183 7.428787 -13.744821 -0.971285 -25.022470 -2.538349 15.369702 -4.901445 -10.608377 -10.879465 -8.585641 41.841226 -30.695661 11.712009 -6.994858 9.198309 -8.835783 -16.896808 2.268557 4.407993 24.896013 10.108993 6.160419 10.084308 -10.684270 -4.266303 -29.585547 -7.364185 0.532553 -14.897831 1.321747 1.518373 7.332191 -1.819187 3.459341 -9.607241 10.314839 30.512738 10.310975 -64.014340 -4.554767 57.571049 164.280766 -70.257401 -168.071476 12.411506 -16.891872 12.709728 -2.775894 11.026624 0.000001 0.000000 0.000000 0.000000 0.000000 0.000000 0.000000 -15.292861 -39.246607 -1.786697 81.532882 4.217740 52.142043 177.280387 73.155760 -178.636214 -9.094366 31.404164 6.318552 -0.306134 -7.868109 0.000000 0.000000 0.000000 0.000000 0.000000 0.000000 0.000000 
0.096618 17.250950 27.120150 175.082111 85.876348 -174.662258 -11.475196 21.853118 -13.087029 -28.912678 -12.303351 -24.695796 8.138742 2.380358 51.067928 27.184505 -10.281855 -0.808824 -10.381523 7.168517 -13.683034 -1.127880 -24.965033 -2.301755 15.189984 -5.126002 -10.161505 -10.583442 -8.595911 41.493262 -30.582869 12.367725 -4.480359 9.529215 -9.553851 -17.490925 2.102805 4.494773 24.439058 10.047425 6.205128 10.049218 -10.652846 -4.175691 -29.464420 -7.357891 0.455553 -14.973296 1.364215 1.462996 7.389651 -1.819226 3.411110 -9.590573 10.545803 30.559475 10.634842 -63.437833 -4.304365 58.189658 163.679777 -69.972083 -167.714395 12.475074 -17.121628 12.933284 -2.974092 10.999964 0.000000 0.000000 0.000000 0.000000 0.000000 0.000000 0.000000 -15.464162 -39.290311 -1.682700 81.345742 3.938336 52.701732 177.337928 72.680832 -178.724719 -9.113141 31.539116 6.341882 -0.260392 -7.804587 0.000000 0.000000 0.000000 0.000000 0.000000 0.000000 0.000000 
0.325911 17.316500 27.110250 175.124579 85.108536 -174.518097 -11.431295 21.743936 -12.952299 -29.262879 -11.761835 -24.187494 6.798597 2.210704 47.613493 26.685639 -10.805934 -0.214490 -10.427486 6.963210 -13.583585 -1.249079 -24.934490 -2.085722 14.970990 -5.278458 -9.872412 -10.319430 -8.636420 41.409856 -30.486242 13.154449 -1.799963 9.874958 -10.393505 -18.095413 1.913286 4.574024 23.972287 9.939324 6.237630 9.980104 -10.567465 -4.044835 -29.342732 -7.335289 0.353815 -15.042798 1.394979 1.387715 7.461352 -1.823114 3.365061 -9.565888 10.790281 30.635013 10.955328 -62.931906 -4.056684 58.652577 163.223436 -69.765705 -167.307055 12.549550 -17.266748 13.191152 -3.176423 10.998756 -0.000000 0.000000 0.000000 0.000000 0.000000 0.000000 0.000000 -15.601619 -39.307552 -1.563728 81.141639 3.641133 53.299274 177.356941 72.308488 -178.638003 -9.218914 31.619702 6.520865 -0.151602 -7.777078 0.000000 0.000000 0.000000 0.000000 0.000000 0.000000 0.000000 
0.561123 17.379050 27.096300 175.201354 84.298377 -174.389019 -11.414179 21.665811 -12.682597 -29.585319 -11.234508 -23.650498 5.465757 1.934311 44.205561 26.165759 -11.446260 0.938312 -10.557850 6.903982 -13.393542 -1.412546 -24.962177 -1.970488 14.727989 -5.578290 -9.574212 -10.079802 -8.717737 41.473747 -30.368554 14.140742 1.068635 10.238066 -11.423517 -18.603860 1.639634 4.703507 23.472881 10.150175 6.347149 9.938443 -10.606684 -4.056939 -29.214737 -7.318716 0.224831 -15.127371 1.359263 1.306192 7.612158 -1.829648 3.360613 -9.460345 10.988317 30.643485 11.304602 -62.438314 -3.725756 59.212065 162.654881 -69.502792 -167.086537 12.251955 -17.323447 13.030871 -3.436225 10.966503 -0.000000 0.000000 0.000000 0.000000 0.000000 0.000000 0.000000 -15.824650 -39.375463 -1.477991 80.896875 3.311537 54.012907 177.509379 72.041599 -178.581798 -9.274546 31.610896 6.649075 -0.027631 -7.756829 0.000000 0.000000 0.000000 0.000000 0.000000 0.000000 0.000000 
0.800829 17.438750 27.079650 175.316412 83.464078 -174.279835 -11.407452 21.640662 -12.319786 -29.900103 -10.679381 -23.073857 4.190018 1.588948 40.906151 25.788182 -12.191249 2.603058 -10.694205 6.935339 -13.036806 -1.583379 -25.045598 -1.907287 14.445373 -5.941963 -9.333258 -9.900250 -8.838772 41.724916 -30.440329 15.334148 4.054867 10.532899 -12.555700 -18.887573 1.315113 4.854411 22.939521 10.537028 6.490770 10.009336 -10.698290 -4.149188 -29.146721 -7.301057 0.066887 -15.226241 1.300142 1.211167 7.807725 -1.836924 3.364848 -9.314185 11.118004 30.651309 11.696804 -61.979200 -3.390233 59.562217 162.266374 -69.279296 -166.809977 12.187551 -17.284000 13.101024 -3.611968 10.967734 0.000001 0.000000 0.000000 0.000000 0.000000 0.000000 0.000000 -16.044842 -39.492074 -1.451059 80.604549 2.951854 54.883222 177.789240 71.890891 -178.561002 -9.524091 31.708008 6.952075 0.029345 -7.723626 0.000000 0.000000 0.000000 0.000000 0.000000 0.000000 0.000000 
1.040461 17.492600 27.060150 175.457499 82.725615 -174.191743 -11.450852 21.656702 -11.951339 -30.136177 -10.023287 -22.522748 2.995802 1.293196 37.857225 25.427887 -12.906004 4.455708 -10.843764 7.046953 -12.585781 -1.739173 -25.201027 -1.838408 14.140076 -6.189507 -9.293641 -9.845795 -8.962263 42.305462 -30.530745 16.677379 6.988453 10.778856 -13.767197 -18.748594 0.934068 5.029955 22.423495 10.978908 6.662526 10.127085 -10.782285 -4.228449 -29.087846 -7.287454 -0.067706 -15.328234 1.222667 1.142762 7.977969 -1.842636 3.389594 -9.164403 11.240944 30.649112 12.079632 -61.602094 -3.042708 59.824457 161.936064 -69.040613 -166.643083 12.049595 -17.230556 13.054777 -3.734162 10.950701 0.000000 0.000000 0.000000 0.000000 0.000000 0.000000 0.000000 -16.245079 -39.616932 -1.410412 80.314020 2.649146 55.636656 177.876317 71.833091 -178.256429 -9.719289 31.870941 7.311499 0.234851 -7.716201 0.000000 0.000000 0.000000 0.000000 0.000000 0.000000 0.000000 
1.281303 17.538500 27.036000 175.632697 81.954150 -174.128335 -11.507401 21.750255 -11.571961 -30.413926 -9.334245 -21.921577 1.960549 1.006653 35.135732 24.993729 -13.667248 6.195984 -11.043555 7.244767 -12.083361 -1.856712 -25.341570 -1.743503 13.754345 -6.343367 -9.365735 -9.879011 -9.153289 43.135968 -30.559218 18.101425 9.760350 11.002344 -15.017178 -18.122867 0.596842 5.151038 21.895240 11.439918 6.777204 10.280556 -10.896974 -4.311032 -28.985734 -7.263143 -0.215859 -15.444505 1.149476 1.058504 8.168189 -1.848653 3.397898 -8.996006 11.336587 30.597847 12.504034 -61.302479 -2.653380 59.895237 161.697328 -68.807782 -166.494643 11.895827 -17.070253 12.986715 -3.842243 10.944833 -0.000000 0.000000 0.000000 0.000000 0.000000 0.000000 0.000000 -16.446598 -39.713491 -1.383451 80.049678 2.349785 56.362016 177.993103 71.857774 -177.898748 -9.852765 31.889752 7.634226 0.487590 -7.738721 0.000000 0.000000 0.000000 0.000000 0.000000 0.000000 0.000000 
1.522155 17.575250 27.009750 175.846421 81.214656 -174.096975 -11.603900 21.908233 -11.196870 -30.645595 -8.590039 -21.314054 1.105713 0.823875 32.826900 24.472198 -14.318834 7.363671 -11.310485 7.468191 -11.864005 -1.949457 -25.500058 -1.617631 13.335865 -6.377765 -9.562331 -10.056722 -9.380775 44.240451 -30.642534 19.643973 12.376208 11.188493 -16.203127 -16.943957 0.248960 5.263357 21.370970 11.962840 6.886451 10.518493 -11.055191 -4.392598 -28.876704 -7.255222 -0.309372 -15.570830 1.081313 1.026924 8.311594 -1.847088 3.420097 -8.836233 11.426117 30.465368 12.983733 -61.085852 -2.235845 59.784449 161.493066 -68.524435 -166.413580 11.622116 -16.608209 12.768117 -3.935272 10.958548 0.000001 0.000000 0.000000 0.000000 0.000000 0.000000 0.000000 -16.661671 -39.830183 -1.418982 79.803206 2.054555 57.125910 178.188903 71.960911 -177.558138 -10.011546 31.954478 7.973587 0.731678 -7.753445 0.000000 0.000000 0.000000 0.000000 0.000000 0.000000 0.000000 
